<svg xmlns="http://www.w3.org/2000/svg" viewBox="0 0 24 24" class="vduucfkjp__design-iconfont" width="128" height="128">
  <path d="M9.76531 14.9388L12 12.7041L14.2347 14.9388L14.9388 14.2347L12.7041 12L14.9388 9.76531L14.2347 9.06122L12 11.2959L9.76531 9.06122L9.06122 9.76531L11.2959 12L9.06122 14.2347L9.76531 14.9388ZM12 18C11.1735 18 10.3955 17.8418 9.66612 17.5255C8.93633 17.2092 8.30102 16.7806 7.7602 16.2398C7.21939 15.699 6.79082 15.0637 6.47449 14.3339C6.15816 13.6045 6 12.8265 6 12C6 11.1735 6.15816 10.3929 6.47449 9.65816C6.79082 8.92347 7.21939 8.28571 7.7602 7.7449C8.30102 7.20408 8.93633 6.77796 9.66612 6.46653C10.3955 6.15551 11.1735 6 12 6C12.8265 6 13.6071 6.15551 14.3418 6.46653C15.0765 6.77796 15.7143 7.20408 16.2551 7.7449C16.7959 8.28571 17.222 8.92082 17.5335 9.6502C17.8445 10.38 18 11.1633 18 12C18 12.8367 17.8445 13.6173 17.5335 14.3418C17.222 15.0663 16.7959 15.699 16.2551 16.2398C15.7143 16.7806 15.0792 17.2092 14.3498 17.5255C13.62 17.8418 12.8367 18 12 18Z"></path>
</svg>